<svg width="28" height="27" viewBox="0 0 28 27" fill="none" xmlns="http://www.w3.org/2000/svg">
<path d="M25.1647 14.2976C24.2008 14.0988 22.895 13.9938 21.3887 13.9938C20.767 13.9938 20.1801 14.012 19.6367 14.047V2.18216C19.6367 1.4184 19.0102 0.796997 18.2402 0.796997H2.39648C1.58729 0.796997 1 1.46429 1 2.38363V23.2869C1 23.8343 1.61004 24.4706 2.39648 24.4706H15.7773V25.0499C15.7773 25.9038 17.1587 26.1887 17.6127 26.2823C18.5766 26.481 19.8823 26.5861 21.3887 26.5861C22.895 26.5861 24.2008 26.481 25.1647 26.2823C25.6186 26.1887 27 25.9038 27 25.0499V15.53C27 14.6761 25.6186 14.3912 25.1647 14.2976ZM26.2383 20.2875C26.2304 20.3037 26.0719 20.5814 24.8823 20.8079C23.9795 20.9799 22.7714 21.0707 21.3887 21.0707C20.0059 21.0707 18.7979 20.9799 17.895 20.8079C16.6762 20.5758 16.5397 20.2899 16.5391 20.2899V18.8178C16.9377 19.003 17.3883 19.0961 17.6127 19.1424C18.5766 19.3411 19.8823 19.4462 21.3887 19.4462C22.895 19.4462 24.2008 19.3411 25.1647 19.1424C25.389 19.0961 25.8396 19.003 26.2383 18.8178V20.2875ZM10.8008 20.3655C10.5904 20.3655 10.4199 20.5346 10.4199 20.7433V21.7003H4.63086C4.43236 21.7003 4.30078 21.539 4.30078 21.4736V17.7211H10.4199V18.9803C10.4199 19.189 10.5904 19.3581 10.8008 19.3581C11.0112 19.3581 11.1816 19.189 11.1816 18.9803V17.7211H15.7773V21.7003H11.1816V20.7433C11.1816 20.5346 11.0112 20.3655 10.8008 20.3655ZM17.3008 14.3666C16.7168 14.5087 15.7773 14.8257 15.7773 15.53V16.9656H11.1816V12.9864H16.9707C17.1527 12.9864 17.3008 13.1333 17.3008 13.3138V14.3666ZM10.4199 16.9656H4.30078V13.4145C4.30078 13.1584 4.43342 12.9864 4.63086 12.9864H10.4199V16.9656ZM26.2383 17.9076C26.2304 17.9238 26.0719 18.2014 24.8823 18.428C23.9795 18.5999 22.7714 18.6908 21.3887 18.6908C20.0059 18.6908 18.7979 18.5999 17.895 18.428C16.6762 18.1959 16.5397 17.91 16.5391 17.91V16.4378C16.9377 16.6231 17.3883 16.7162 17.6127 16.7624C18.5766 16.9612 19.8823 17.0663 21.3887 17.0663C22.895 17.0663 24.2008 16.9612 25.1647 16.7625C25.389 16.7162 25.8396 16.6231 26.2383 16.4379V17.9076ZM24.8823 15.0121C26.0311 15.2308 26.2184 15.4974 26.237 15.53C26.2184 15.5627 26.0311 15.8292 24.8823 16.048C23.9795 16.2199 22.7714 16.3108 21.3887 16.3108C20.0059 16.3108 18.7979 16.2199 17.895 16.048C16.7463 15.8292 16.559 15.5627 16.5403 15.53C16.559 15.4974 16.7463 15.2308 17.895 15.0121C18.7979 14.8402 20.0059 14.7493 21.3887 14.7493C22.7714 14.7493 23.9795 14.8402 24.8823 15.0121ZM2.39648 23.7151C2.02974 23.7151 1.76172 23.4146 1.76172 23.2869V10.9716H14.3047C14.5151 10.9716 14.6855 10.8025 14.6855 10.5938C14.6855 10.3852 14.5151 10.2161 14.3047 10.2161H1.76172V2.38363C1.76172 1.87878 2.01085 1.55254 2.39648 1.55254H18.2402C18.5903 1.55254 18.875 1.83496 18.875 2.18216V10.2161H16.082C15.8716 10.2161 15.7012 10.3852 15.7012 10.5938C15.7012 10.8025 15.8716 10.9716 16.082 10.9716H18.875V14.11C18.5871 14.1398 18.3158 14.1752 18.0625 14.216V13.3138C18.0625 12.7167 17.5727 12.2308 16.9707 12.2308H4.63086C4.00843 12.2308 3.53906 12.7397 3.53906 13.4145V21.4736C3.53906 21.9969 4.04926 22.4558 4.63086 22.4558H15.7773V23.7151H2.39648ZM24.8823 25.5678C23.9795 25.7397 22.7714 25.8306 21.3887 25.8306C20.0059 25.8306 18.7979 25.7397 17.895 25.5678C16.6762 25.3357 16.5397 25.0499 16.5391 25.0499V23.5777C16.9377 23.7629 17.3883 23.856 17.6127 23.9023C18.5766 24.101 19.8823 24.2061 21.3887 24.2061C22.1145 24.2061 22.802 24.1812 23.4321 24.1319C23.6418 24.1156 23.7984 23.9337 23.7819 23.7257C23.7654 23.5177 23.5815 23.3623 23.3723 23.3787C22.7621 23.4264 22.0947 23.4506 21.3887 23.4506C20.0059 23.4506 18.7979 23.3597 17.895 23.1878C16.6762 22.9558 16.5397 22.6699 16.5391 22.6699V21.1978C16.9377 21.383 17.3883 21.4761 17.6127 21.5223C18.5766 21.7211 19.8823 21.8262 21.3887 21.8262C22.895 21.8262 24.2008 21.7211 25.1647 21.5223C25.389 21.4761 25.8396 21.383 26.2383 21.1978V22.6674C26.2305 22.6835 26.0902 22.9295 25.0821 23.1473C24.8766 23.1917 24.7463 23.393 24.7911 23.5968C24.835 23.8022 25.0441 23.9305 25.2443 23.8855C25.4527 23.8405 25.8653 23.751 26.2383 23.578V25.0474C26.2304 25.0637 26.0719 25.3412 24.8823 25.5678Z" fill="#F0F1F3" stroke="#F0F1F3" stroke-width="0.5"/>
<path d="M18.1133 7.87389V3.89471C18.1133 3.29758 17.6235 2.81177 17.0215 2.81177H8.61719C8.4068 2.81177 8.23633 2.98086 8.23633 3.18954C8.23633 3.39822 8.4068 3.56731 8.61719 3.56731H17.0215C17.2035 3.56731 17.3516 3.71419 17.3516 3.89471V7.87389C17.3516 8.05441 17.2035 8.20129 17.0215 8.20129H4.63086C4.44886 8.20129 4.30078 8.05441 4.30078 7.87389V3.89471C4.30078 3.71419 4.44886 3.56731 4.63086 3.56731H6.83984C7.05023 3.56731 7.2207 3.39822 7.2207 3.18954C7.2207 2.98086 7.05023 2.81177 6.83984 2.81177H4.63086C4.02885 2.81177 3.53906 3.29758 3.53906 3.89471V7.87389C3.53906 8.47102 4.02885 8.95683 4.63086 8.95683H17.0215C17.6235 8.95683 18.1133 8.47102 18.1133 7.87389Z" fill="#F0F1F3" stroke="#F0F1F3" stroke-width="0.5"/>
<path d="M8.99805 19.3329H6.25586C6.04547 19.3329 5.875 19.502 5.875 19.7107C5.875 19.9194 6.04547 20.0885 6.25586 20.0885H8.99805C9.20843 20.0885 9.37891 19.9194 9.37891 19.7107C9.37891 19.502 9.20843 19.3329 8.99805 19.3329Z" fill="#F0F1F3" stroke="#F0F1F3" stroke-width="0.5"/>
<path d="M6.50977 15.3537H7.24609V16.0841C7.24609 16.2928 7.41657 16.4619 7.62695 16.4619C7.83734 16.4619 8.00781 16.2928 8.00781 16.0841V15.3537H8.74414C8.95453 15.3537 9.125 15.1847 9.125 14.976C9.125 14.7673 8.95453 14.5982 8.74414 14.5982H8.00781V13.8679C8.00781 13.6592 7.83734 13.4901 7.62695 13.4901C7.41657 13.4901 7.24609 13.6592 7.24609 13.8679V14.5982H6.50977C6.29938 14.5982 6.12891 14.7673 6.12891 14.976C6.12891 15.1847 6.29938 15.3537 6.50977 15.3537Z" fill="#F0F1F3" stroke="#F0F1F3" stroke-width="0.5"/>
<path d="M15.0593 13.9252C14.9105 13.7777 14.6694 13.7777 14.5206 13.9252L14 14.4416L13.4793 13.9252C13.3305 13.7777 13.0894 13.7777 12.9407 13.9252C12.7919 14.0728 12.7919 14.3119 12.9407 14.4595L13.4613 14.9759L12.9407 15.4923C12.7919 15.6399 12.7919 15.8791 12.9407 16.0266C13.0894 16.1741 13.3305 16.1741 13.4793 16.0266L14 15.5102L14.5206 16.0266C14.6694 16.1741 14.9105 16.1741 15.0593 16.0266C15.208 15.879 15.208 15.6399 15.0593 15.4923L14.5386 14.9759L15.0593 14.4595C15.208 14.3119 15.208 14.0727 15.0593 13.9252Z" fill="#F0F1F3" stroke="#F0F1F3" stroke-width="0.5"/>
<path d="M13.1442 20.9525C13.2416 20.9525 13.3391 20.9156 13.4135 20.8418L15.1401 19.1293C15.2888 18.9817 15.2888 18.7425 15.1401 18.595C14.9913 18.4475 14.7502 18.4475 14.6014 18.595L12.8749 20.3076C12.7261 20.4552 12.7261 20.6943 12.8749 20.8418C12.9493 20.9156 13.0468 20.9525 13.1442 20.9525Z" fill="#F0F1F3" stroke="#F0F1F3" stroke-width="0.5"/>
<path d="M13.2637 19.1318C13.474 19.1318 13.6445 18.9627 13.6445 18.7541C13.6445 18.5454 13.474 18.3763 13.2637 18.3763C13.0533 18.3763 12.8828 18.5454 12.8828 18.7541C12.8828 18.9627 13.0533 19.1318 13.2637 19.1318Z" fill="#F0F1F3" stroke="#F0F1F3" stroke-width="0.5"/>
<path d="M14.7871 21.0459C14.9975 21.0459 15.168 20.8767 15.168 20.6681C15.168 20.4594 14.9975 20.2903 14.7871 20.2903C14.5768 20.2903 14.4062 20.4594 14.4062 20.6681C14.4062 20.8767 14.5768 21.0459 14.7871 21.0459Z" fill="#F0F1F3" stroke="#F0F1F3" stroke-width="0.5"/>
<path d="M15.752 7.49613C16.2419 7.49613 16.6406 7.10068 16.6406 6.61467V5.15396C16.6406 4.66794 16.2419 4.27249 15.752 4.27249H15.041C14.551 4.27249 14.1523 4.66794 14.1523 5.15396V6.61467C14.1523 7.10068 14.551 7.49613 15.041 7.49613H15.752ZM14.9141 6.61467V5.15396C14.9141 5.0845 14.971 5.02803 15.041 5.02803H15.752C15.822 5.02803 15.8789 5.0845 15.8789 5.15396V6.61467C15.8789 6.68413 15.822 6.74059 15.752 6.74059H15.041C14.971 6.74059 14.9141 6.68413 14.9141 6.61467Z" fill="#F0F1F3" stroke="#F0F1F3" stroke-width="0.5"/>
</svg>
