<svg width="24" height="20" viewBox="0 0 24 20" fill="none" xmlns="http://www.w3.org/2000/svg">
<path d="M17.2857 0.756836H2.71429C1.76751 0.756836 1 1.51812 1 2.45722V12.6595C1 13.5986 1.76751 14.3599 2.71429 14.3599H17.2857C18.2325 14.3599 19 13.5986 19 12.6595V2.45722C19 1.51812 18.2325 0.756836 17.2857 0.756836Z" fill="white" stroke="white" stroke-linecap="round" stroke-linejoin="round"/>
<path d="M10 10.1094C11.4202 10.1094 12.5714 8.96752 12.5714 7.55887C12.5714 6.15023 11.4202 5.0083 10 5.0083C8.57986 5.0083 7.42859 6.15023 7.42859 7.55887C7.42859 8.96752 8.57986 10.1094 10 10.1094Z" stroke="#740122" stroke-linecap="round" stroke-linejoin="round"/>
<path d="M6.14282 18.6105H21.5714C22.026 18.6105 22.4621 18.4313 22.7836 18.1125C23.1051 17.7936 23.2857 17.3611 23.2857 16.9101V8.4082" stroke="white" stroke-linecap="round" stroke-linejoin="round"/>
</svg>
