<svg width="26" height="21" viewBox="0 0 26 21" fill="none" xmlns="http://www.w3.org/2000/svg">
<path d="M3.97724 0.833374C3.97654 0.833374 3.97575 0.833374 3.97505 0.833374C3.72914 0.833374 3.49786 0.928455 3.32321 1.10125C3.14664 1.27596 3.04938 1.50858 3.04938 1.75623V15.5943C3.04938 16.1017 3.46722 16.5156 3.98092 16.5169C6.14654 16.522 9.77483 16.9697 12.2778 19.5678V5.0859C12.2778 4.91389 12.2335 4.75229 12.1499 4.61857C10.0956 1.337 6.14777 0.83841 3.97724 0.833374Z" fill="#F0F1F3"/>
<path d="M22.9508 15.5934V1.75525C22.9508 1.50761 22.8535 1.27498 22.6769 1.10028C22.5023 0.927479 22.2708 0.832397 22.0252 0.832397C22.0244 0.832397 22.0236 0.832397 22.0229 0.832397C19.8525 0.837521 15.9047 1.33611 13.8502 4.61768C13.7666 4.7514 13.7224 4.913 13.7224 5.08501V19.5668C16.2254 16.9687 19.8537 16.521 22.0193 16.5159C22.5329 16.5146 22.9508 16.1007 22.9508 15.5934Z" fill="#F0F1F3"/>
<path d="M25.0698 4.02374H24.3952V15.5934C24.3952 16.889 23.3309 17.9455 22.0227 17.9487C20.1858 17.953 17.157 18.3093 15.012 20.323C18.7218 19.4221 22.6327 20.0077 24.8615 20.5115C25.1398 20.5744 25.4274 20.5095 25.6504 20.3332C25.8726 20.1574 26 19.8945 26 19.6124V4.94642C26.0001 4.43767 25.5827 4.02374 25.0698 4.02374Z" fill="#F0F1F3"/>
<path d="M1.60483 15.5934V4.02374H0.930225C0.417402 4.02374 0 4.43767 0 4.94642V19.6121C0 19.8943 0.127462 20.1571 0.349644 20.3329C0.57244 20.5091 0.859754 20.5743 1.13849 20.5113C3.36732 20.0074 7.27827 19.4218 10.988 20.3228C8.84301 18.3091 5.81421 17.9529 3.97731 17.9486C2.66917 17.9455 1.60483 16.889 1.60483 15.5934Z" fill="#F0F1F3"/>
</svg>
