<svg width="26" height="26" viewBox="0 0 26 26" fill="none" xmlns="http://www.w3.org/2000/svg">
<g clip-path="url(#clip0_271_3794)">
<path d="M8.34916 6.34712C9.51426 6.34712 10.4588 5.40263 10.4588 4.23753C10.4588 3.07243 9.51426 2.12793 8.34916 2.12793C7.18406 2.12793 6.23956 3.07243 6.23956 4.23753C6.23956 5.40263 7.18406 6.34712 8.34916 6.34712Z" fill="#F0F1F3"/>
<path d="M12.6385 24.6687L11.8676 19.0057C11.8562 18.9218 11.8357 18.8395 11.8066 18.76L10.7056 15.7582V13.2691C9.93679 13.6403 9.01806 13.3212 8.64182 12.558L7.12179 9.46499L9.27105 12.0309C9.72361 12.5712 10.586 12.4371 10.8561 11.7897L12.3422 8.22781C12.5418 7.74961 12.3158 7.20026 11.8377 7.00069C11.3595 6.80112 10.8101 7.02714 10.6106 7.50525L9.71858 9.64313L8.56011 8.26016L9.20782 8.73537L9.90962 7.0602H6.73915C6.05986 7.0602 5.49192 7.53567 5.34907 8.1719V8.01651C5.34907 7.13922 4.63789 6.42798 3.76059 6.42798C2.88335 6.42798 2.17206 7.13917 2.17206 8.01651V10.1415H1.72432C1.41938 10.1415 1.17218 10.3887 1.17218 10.6937V12.4606C1.17218 12.7656 1.41938 13.0128 1.72432 13.0128H2.17206C2.17206 14.1029 3.01482 14.8404 3.95463 14.8404H5.31409V15.7968H5.3153L5.16311 19.4327L3.12476 24.3802C2.87802 24.9791 3.16346 25.6645 3.76232 25.9113C4.36128 26.158 5.04672 25.8724 5.29337 25.2737L7.41053 20.1351C7.46263 20.0087 7.49224 19.874 7.49792 19.7374C7.67276 15.5599 7.66159 15.8436 7.66159 15.7968H8.22135L9.56065 19.4483L10.3143 24.9851C10.4018 25.6276 10.9936 26.0764 11.6345 25.989C12.2764 25.9015 12.7258 25.3104 12.6385 24.6687Z" fill="#F0F1F3"/>
<path d="M20.5274 4.21919C21.6925 4.21919 22.637 3.2747 22.637 2.1096C22.637 0.944499 21.6925 0 20.5274 0C19.3623 0 18.4178 0.944499 18.4178 2.1096C18.4178 3.2747 19.3623 4.21919 20.5274 4.21919Z" fill="#F0F1F3"/>
<path d="M24.8169 22.5407L24.046 16.8777C24.0346 16.7939 24.0142 16.7115 23.9851 16.6321L22.884 13.6302V12.6343C22.4623 12.5002 20.0388 11.7297 19.5513 11.5746C18.9754 11.3915 18.6242 10.8312 18.6824 10.2531L19.0256 6.82382L19.4952 10.1379C19.5458 10.4948 19.7963 10.7911 20.1398 10.9003L23.2157 11.8784C23.7094 12.0353 24.237 11.7625 24.394 11.2686C24.5511 10.7748 24.2781 10.2472 23.7843 10.0902L21.2702 9.29081L20.8833 6.56062L21.6855 8.56149L22.884 8.9426V6.35734C22.884 5.57029 22.246 4.93227 21.4589 4.93227H18.9176C18.2383 4.93227 17.6704 5.40774 17.5275 6.04397V5.88858C17.5275 5.01129 16.8163 4.30005 15.939 4.30005C15.0617 4.30005 14.3505 5.01124 14.3505 5.88858V8.50624H13.9332C13.6283 8.50624 13.3811 8.75344 13.3811 9.05838V10.5966C13.3811 10.9015 13.6283 11.1487 13.9332 11.1487H14.3644C14.4724 12.0299 15.2227 12.7124 16.1331 12.7124H17.4925V13.6688H17.4938L17.3416 17.3048L15.3032 22.2523C15.0565 22.8511 15.342 23.5366 15.9408 23.7833C16.5402 24.0302 17.2253 23.7441 17.4718 23.1458L19.5889 18.0071C19.641 17.8807 19.6706 17.7461 19.6763 17.6094C19.8512 13.4314 19.84 13.7158 19.84 13.6688H20.3998L21.7391 17.3203L22.4928 22.8572C22.5802 23.4996 23.1721 23.9484 23.813 23.861C24.4549 23.7736 24.9043 23.1825 24.8169 22.5407Z" fill="#F0F1F3"/>
</g>
<defs>
<clipPath id="clip0_271_3794">
<rect width="26" height="26" fill="white"/>
</clipPath>
</defs>
</svg>
