<svg width="30" height="29" viewBox="0 0 30 29" fill="none" xmlns="http://www.w3.org/2000/svg">
<path fill-rule="evenodd" clip-rule="evenodd" d="M8.27708 0.907227H26.6109C28.2952 0.907227 29.6667 2.29381 29.6667 3.99666V17.5893C29.6667 19.2922 28.2952 20.6788 26.6109 20.6788H8.27708C6.59301 20.6788 5.22153 19.2922 5.22153 17.5893V3.99666C5.22153 2.29381 6.59301 0.907227 8.27708 0.907227ZM26.6109 3.37873H8.27708C7.93985 3.37873 7.66611 3.65543 7.66611 3.9966V15.6605L11.0395 12.251C11.8743 11.4059 13.2347 11.4059 14.0706 12.251L15.5495 13.7426L20.0891 8.23391C20.4948 7.74202 21.0889 7.45784 21.7219 7.45425C22.3587 7.46891 22.9515 7.72847 23.3611 8.21404L27.2221 12.7689V3.99666C27.2221 3.65549 26.9484 3.37873 26.6109 3.37873ZM3.64245 19.3798C4.27451 21.2655 6.01496 22.5321 7.97164 22.5321H25.7151L24.614 26.0723C24.3022 27.276 23.1899 28.0928 21.9726 28.0928C21.7351 28.0926 21.4985 28.0619 21.2686 28.0014L2.36877 22.8842C0.91072 22.4776 0.0416977 20.9517 0.423041 19.4798L3.38819 9.47299V17.8982C3.38819 18.3184 3.45064 18.7383 3.59971 19.2377L3.64245 19.3798ZM13.7773 7.08566C13.7773 8.44866 12.6811 9.55715 11.3329 9.55715C9.98475 9.55715 8.88833 8.44861 8.88833 7.08566C8.88833 5.72271 9.98469 4.61416 11.3329 4.61416C12.6811 4.61416 13.7773 5.72265 13.7773 7.08566Z" fill="#A3A3A3"/>
</svg>
